<?xml version="1.0" encoding="UTF-8" standalone="no"?>
<!DOCTYPE svg PUBLIC "-//W3C//DTD SVG 1.1//EN" "http://www.w3.org/Graphics/SVG/1.1/DTD/svg11.dtd">
<svg xmlns="http://www.w3.org/2000/svg" version="1.1" viewBox="0.00 0.00 354.00 90.00">
<path fill="#ed781a" d="
  M 166.80 29.11
  Q 165.02 29.70 163.32 29.09
  L 163.10 25.45
  A 1.97 1.96 14.6 0 0 162.19 23.91
  Q 158.97 21.88 158.18 20.19
  A 3.03 3.03 0.0 0 1 157.89 18.99
  Q 157.60 11.53 160.44 3.79
  A 0.40 0.40 0.0 0 1 161.22 3.95
  L 160.47 15.93
  A 0.86 0.86 0.0 0 0 161.26 16.85
  L 161.30 16.85
  A 0.74 0.73 -85.1 0 0 162.11 16.16
  L 162.88 4.04
  A 0.52 0.52 0.0 0 1 163.43 3.55
  L 163.74 3.57
  A 0.35 0.35 0.0 0 1 164.07 3.92
  L 164.21 16.24
  A 0.82 0.82 0.0 0 0 164.99 17.05
  L 165.02 17.06
  A 0.72 0.72 0.0 0 0 165.80 16.34
  L 165.87 4.05
  A 0.54 0.54 0.0 0 1 166.41 3.51
  L 166.72 3.51
  A 0.32 0.32 0.0 0 1 167.04 3.81
  L 167.91 16.15
  A 0.73 0.73 0.0 0 0 168.73 16.83
  L 168.76 16.83
  A 0.84 0.84 0.0 0 0 169.56 15.94
  L 168.71 3.90
  A 0.42 0.42 0.0 0 1 169.53 3.73
  Q 172.07 10.82 172.20 17.73
  C 172.27 21.15 170.12 22.33 167.57 24.16
  A 1.28 1.27 -16.7 0 0 167.04 25.13
  L 166.80 29.11
  Z"
/>
<path fill="#010101" d="
  M 140.46 32.36
  L 140.46 8.17
  A 0.78 0.78 0.0 0 1 141.24 7.39
  L 150.67 7.39
  A 0.48 0.48 0.0 0 1 151.15 7.87
  L 151.15 72.28
  A 0.84 0.83 -0.0 0 1 150.31 73.11
  L 142.80 73.11
  A 0.81 0.79 -10.7 0 1 142.05 72.61
  L 140.82 69.48
  A 0.38 0.37 -29.4 0 0 140.24 69.32
  Q 135.17 73.17 132.60 73.66
  Q 113.41 77.26 106.15 60.99
  Q 102.88 53.66 104.93 44.73
  Q 108.17 30.65 121.96 27.97
  C 128.35 26.73 134.64 28.32 139.71 32.71
  A 0.46 0.45 -69.9 0 0 140.46 32.36
  Z
  M 127.0797 37.0306
  A 14.06 12.93 -93.1 0 0 114.9289 51.7692
  A 14.06 12.93 -93.1 0 0 128.6003 65.1094
  A 14.06 12.93 -93.1 0 0 140.7511 50.3708
  A 14.06 12.93 -93.1 0 0 127.0797 37.0306
  Z"
/>
<path fill="#010101" d="
  M 15.09 69.35
  A 0.23 0.23 0.0 0 0 14.71 69.52
  L 14.71 87.44
  A 0.51 0.51 0.0 0 1 14.20 87.95
  L 4.55 87.95
  A 0.61 0.60 0.0 0 1 3.94 87.35
  L 3.94 29.49
  A 0.45 0.44 0.0 0 1 4.39 29.05
  L 12.84 29.05
  A 0.77 0.76 -8.0 0 1 13.58 29.60
  Q 14.01 31.05 14.01 32.55
  A 0.57 0.57 0.0 0 0 14.98 32.96
  C 21.70 26.40 32.98 26.06 40.68 30.89
  C 52.13 38.07 53.90 56.69 45.39 66.90
  C 38.13 75.61 23.91 77.36 15.09 69.35
  Z
  M 27.3913 37.0017
  A 14.09 12.84 -89.1 0 0 14.3316 50.8883
  A 14.09 12.84 -89.1 0 0 26.9487 65.1783
  A 14.09 12.84 -89.1 0 0 40.0084 51.2917
  A 14.09 12.84 -89.1 0 0 27.3913 37.0017
  Z"
/>
<path fill="#010101" d="
  M 99.40 54.99
  L 65.97 54.99
  A 0.85 0.84 79.8 0 0 65.18 56.13
  Q 68.29 64.64 77.53 65.00
  Q 85.62 65.31 90.04 60.38
  A 0.76 0.75 -48.5 0 1 91.10 60.31
  L 97.00 65.35
  A 0.62 0.61 -49.2 0 1 97.06 66.22
  Q 89.22 75.28 76.24 74.32
  C 66.18 73.58 57.52 67.63 55.09 57.74
  C 52.31 46.45 56.38 34.26 67.78 29.58
  C 83.19 23.26 99.37 31.94 100.45 49.01
  Q 100.69 52.81 100.17 54.43
  A 0.81 0.81 0.0 0 1 99.40 54.99
  Z
  M 65.26 47.30
  L 89.66 47.22
  A 0.14 0.14 0.0 0 0 89.80 47.08
  L 89.80 46.95
  A 12.27 10.19 -0.2 0 0 77.49 36.80
  L 77.35 36.80
  A 12.27 10.19 -0.2 0 0 65.12 47.03
  L 65.12 47.16
  A 0.14 0.14 0.0 0 0 65.26 47.30
  Z"
/>
<path fill="#010101" d="
  M 190.41 34.12
  Q 196.03 27.45 205.01 27.85
  A 0.52 0.52 0.0 0 1 205.51 28.37
  L 205.51 37.76
  A 0.68 0.67 89.1 0 1 204.86 38.44
  C 201.35 38.57 197.38 39.04 194.80 41.19
  Q 189.63 45.48 189.67 52.77
  Q 189.75 69.82 189.66 72.66
  A 0.47 0.47 0.0 0 1 189.19 73.12
  L 179.62 73.12
  A 0.47 0.46 -0.0 0 1 179.15 72.66
  L 179.15 30.47
  A 1.45 1.45 0.0 0 1 180.60 29.02
  L 187.28 29.02
  A 1.68 1.67 -0.9 0 1 188.96 30.64
  Q 189.03 32.89 189.53 34.00
  A 0.53 0.52 -37.1 0 0 190.41 34.12
  Z"
/>
<path fill="#ed781a" d="
  M 236.30 69.85
  A 0.23 0.22 -29.8 0 0 235.96 69.76
  Q 227.55 75.99 217.28 73.76
  C 211.25 72.46 206.52 68.13 206.29 61.90
  Q 205.86 49.96 217.02 47.48
  Q 224.04 45.91 233.88 46.23
  A 2.32 2.32 0.0 0 0 236.11 43.06
  L 235.33 41.07
  A 5.99 5.98 -6.2 0 0 230.71 37.36
  Q 221.99 35.97 213.68 39.82
  A 0.77 0.76 -22.9 0 1 212.65 39.41
  L 210.05 32.83
  A 0.82 0.82 0.0 0 1 210.45 31.80
  C 220.52 26.84 239.23 24.36 245.08 36.72
  Q 246.69 40.11 246.39 51.47
  Q 246.29 55.20 246.43 72.13
  A 0.89 0.88 89.7 0 1 245.55 73.03
  L 237.93 73.03
  A 0.56 0.56 0.0 0 1 237.41 72.68
  L 236.30 69.85
  Z
  M 235.39 53.09
  Q 232.49 53.18 227.74 53.26
  C 222.05 53.36 215.59 54.07 216.78 61.05
  C 217.71 66.46 224.34 66.72 228.58 65.49
  Q 237.25 62.96 236.10 53.70
  A 0.70 0.69 85.5 0 0 235.39 53.09
  Z"
/>
<path fill="#ed781a" d="
  M 263.87 70.30
  L 263.83 87.41
  A 0.62 0.62 0.0 0 1 263.21 88.03
  L 253.66 88.01
  A 0.65 0.65 0.0 0 1 253.01 87.36
  L 253.14 29.73
  A 0.75 0.75 0.0 0 1 253.89 28.99
  L 261.49 29.00
  A 0.83 0.83 0.0 0 1 262.26 29.52
  L 263.46 32.60
  A 0.36 0.35 -30.7 0 0 264.02 32.74
  Q 270.60 27.10 279.40 27.69
  C 306.09 29.49 305.70 73.86 277.47 74.34
  Q 270.15 74.45 264.63 69.94
  A 0.47 0.46 -70.1 0 0 263.87 70.30
  Z
  M 275.6833 36.9514
  A 14.09 12.55 -90.8 0 0 263.3312 51.2152
  A 14.09 12.55 -90.8 0 0 276.0767 65.1286
  A 14.09 12.55 -90.8 0 0 288.4288 50.8648
  A 14.09 12.55 -90.8 0 0 275.6833 36.9514
  Z"
/>
<path fill="#ed781a" d="
  M 314.32 70.31
  L 314.32 87.42
  A 0.62 0.62 0.0 0 1 313.70 88.04
  L 304.15 88.04
  A 0.65 0.65 0.0 0 1 303.50 87.39
  L 303.50 29.77
  A 0.75 0.75 0.0 0 1 304.25 29.02
  L 311.85 29.02
  A 0.83 0.83 0.0 0 1 312.62 29.54
  L 313.83 32.61
  A 0.36 0.35 -30.8 0 0 314.39 32.75
  Q 320.96 27.10 329.76 27.67
  C 356.45 29.41 356.16 73.78 327.93 74.32
  Q 320.61 74.45 315.08 69.95
  A 0.47 0.46 -70.2 0 0 314.32 70.31
  Z
  M 326.6897 37.0026
  A 14.05 12.43 -88.9 0 0 313.9923 50.8114
  A 14.05 12.43 -88.9 0 0 326.1503 65.0974
  A 14.05 12.43 -88.9 0 0 338.8477 51.2886
  A 14.05 12.43 -88.9 0 0 326.6897 37.0026
  Z"
/>
<path fill="#010101" d="
  M 166.80 29.11
  L 169.82 29.35
  A 0.60 0.59 -88.0 0 1 170.37 29.95
  L 170.37 72.48
  A 0.63 0.62 -90.0 0 1 169.75 73.11
  L 160.71 73.11
  A 0.73 0.73 0.0 0 1 159.98 72.38
  L 159.98 29.93
  A 0.59 0.59 0.0 0 1 160.52 29.34
  L 163.32 29.09
  Q 165.02 29.70 166.80 29.11
  Z"
/>
</svg>
